<svg width="24" height="24" viewBox="0 0 24 24" fill="none" xmlns="http://www.w3.org/2000/svg">
<g clip-path="url(#clip0_69_1324)">
<path d="M23.0624 22.2654H0.937615C0.419838 22.2654 0.00012207 21.8456 0.00012207 21.3279C0.00012207 20.8101 0.419838 20.3904 0.937615 20.3904H23.0624C23.5802 20.3904 23.9999 20.8101 23.9999 21.3279C23.9999 21.8456 23.5802 22.2654 23.0624 22.2654Z" fill="#1A94FF"/>
<path d="M5.6758 17.5817C5.24971 17.5817 4.821 17.5256 4.39842 17.412C3.13623 17.0729 2.08164 16.2626 1.42891 15.1303L0.127297 12.8932C-0.133091 12.4457 0.0186419 11.8718 0.466154 11.6114C0.913666 11.3511 1.48755 11.5027 1.74794 11.9503L3.05143 14.1907C3.45591 14.8923 4.10635 15.3921 4.88489 15.6012C5.66329 15.8104 6.4767 15.7038 7.17509 15.3012L21.9612 6.77787C22.1006 6.69748 22.1219 6.55076 22.1245 6.49141C22.1277 6.42077 22.1152 6.28971 21.9954 6.20553C21.0666 5.55261 20.1127 5.49917 19.1602 6.04653L15.7351 8.07245C15.4083 8.26576 14.9972 8.24298 14.694 8.01451L9.93919 4.43474C9.17523 3.91434 8.52245 3.63689 7.99877 3.61008C7.73866 3.59639 7.60948 3.76125 7.56584 3.8325C7.52009 3.90717 7.46018 4.05276 7.53738 4.22774L10.6035 8.02295C10.6343 8.06106 10.6621 8.10146 10.6865 8.14389C11.0006 8.68871 11.0837 9.32325 10.9205 9.93056C10.7579 10.536 10.3699 11.0421 9.82777 11.3564L5.8678 13.6975C5.42202 13.961 4.8472 13.8133 4.58367 13.3675C4.32014 12.9219 4.46789 12.3469 4.91357 12.0834L8.87729 9.74015C8.88025 9.73842 8.8832 9.73668 8.8862 9.735C8.99715 9.67106 9.07651 9.56775 9.10975 9.44409C9.1382 9.33806 9.12986 9.22805 9.08664 9.12886L6.02099 5.33431C5.99019 5.29621 5.96249 5.2558 5.93802 5.21342C5.5079 4.46732 5.51873 3.585 5.96694 2.85319C6.41558 2.12068 7.2304 1.69309 8.09482 1.73753C8.98459 1.78314 9.9399 2.16306 11.0152 2.89904C11.0269 2.90701 11.0384 2.91526 11.0496 2.92374L15.3205 6.1392L18.2106 4.42973C18.2136 4.42795 18.2166 4.42617 18.2197 4.42443C19.8149 3.50489 21.5387 3.5925 23.0737 4.67151C23.6864 5.10219 24.0318 5.81394 23.9977 6.57541C23.9632 7.3421 23.552 8.02501 22.8976 8.40221L8.11155 16.9256C7.35837 17.3599 6.5225 17.5817 5.6758 17.5817Z" fill="#1A94FF"/>
</g>
<defs>
<clipPath id="clip0_69_1324">
<rect width="24" height="24" fill="white"/>
</clipPath>
</defs>
</svg>
