<svg width="24" height="24" viewBox="0 0 24 24" fill="none" xmlns="http://www.w3.org/2000/svg">
<g clip-path="url(#clip0_69_1923)">
<path d="M23.0625 22.2654H0.937676C0.419899 22.2654 0.000183105 21.8456 0.000183105 21.3279C0.000183105 20.8101 0.419899 20.3904 0.937676 20.3904H23.0625C23.5803 20.3904 24 20.8101 24 21.3279C24 21.8456 23.5803 22.2654 23.0625 22.2654Z" fill="#1A94FF"/>
<path d="M5.67583 17.5817C5.24974 17.5817 4.82103 17.5256 4.39845 17.412C3.13626 17.0729 2.08167 16.2626 1.42894 15.1303L0.127328 12.8932C-0.133061 12.4457 0.0186724 11.8718 0.466185 11.6114C0.913697 11.3511 1.48758 11.5027 1.74797 11.9503L3.05146 14.1907C3.45594 14.8923 4.10638 15.3921 4.88492 15.6012C5.66332 15.8104 6.47673 15.7038 7.17512 15.3012L21.9613 6.77787C22.1007 6.69748 22.1219 6.55076 22.1246 6.49141C22.1277 6.42077 22.1152 6.28971 21.9955 6.20553C21.0666 5.55261 20.1127 5.49917 19.1603 6.04653L15.7351 8.07245C15.4084 8.26576 14.9973 8.24298 14.694 8.01451L9.93922 4.43474C9.17526 3.91434 8.52248 3.63689 7.9988 3.61008C7.73869 3.59639 7.60951 3.76125 7.56587 3.8325C7.52012 3.90717 7.46021 4.05276 7.53741 4.22774L10.6036 8.02295C10.6344 8.06106 10.6621 8.10146 10.6865 8.14389C11.0006 8.68871 11.0837 9.32325 10.9205 9.93056C10.7579 10.536 10.37 11.0421 9.8278 11.3564L5.86783 13.6975C5.42205 13.961 4.84723 13.8133 4.5837 13.3675C4.32017 12.9219 4.46792 12.3469 4.9136 12.0834L8.87733 9.74015C8.88028 9.73842 8.88323 9.73668 8.88623 9.735C8.99718 9.67106 9.07654 9.56775 9.10978 9.44409C9.13823 9.33806 9.12989 9.22805 9.08667 9.12886L6.02102 5.33431C5.99022 5.29621 5.96252 5.2558 5.93805 5.21342C5.50793 4.46732 5.51876 3.585 5.96697 2.85319C6.41561 2.12068 7.23043 1.69309 8.09485 1.73753C8.98462 1.78314 9.93993 2.16306 11.0153 2.89904C11.0269 2.90701 11.0384 2.91526 11.0496 2.92374L15.3205 6.1392L18.2107 4.42973C18.2137 4.42795 18.2167 4.42617 18.2197 4.42443C19.8149 3.50489 21.5388 3.5925 23.0737 4.67151C23.6864 5.10219 24.0319 5.81394 23.9977 6.57541C23.9633 7.3421 23.552 8.02501 22.8976 8.40221L8.11158 16.9256C7.3584 17.3599 6.52253 17.5817 5.67583 17.5817Z" fill="#1A94FF"/>
</g>
<defs>
<clipPath id="clip0_69_1923">
<rect width="24" height="24" fill="white"/>
</clipPath>
</defs>
</svg>
