<svg width="24" height="24" viewBox="0 0 24 24" fill="none" xmlns="http://www.w3.org/2000/svg">
<path d="M20.8333 17.9759C20.5721 17.9759 20.3098 17.929 20.058 17.8337L4.14472 11.789C2.92339 11.3265 1.95449 10.4154 1.41749 9.22388C0.880533 8.03236 0.839705 6.70303 1.30255 5.48077C1.30344 5.47842 1.30433 5.47603 1.30527 5.47369L2.24197 3.0592C2.42924 2.57653 2.97228 2.33704 3.45509 2.52426C3.93781 2.71153 4.1773 3.25467 3.99003 3.73739L3.05474 6.14817C2.77058 6.90112 2.79617 7.71966 3.12692 8.45353C3.45809 9.18844 4.0557 9.75042 4.80955 10.0358L20.7229 16.0806C20.8724 16.1372 20.9994 16.0607 21.0471 16.0252C21.1038 15.9829 21.1972 15.8902 21.1865 15.7442C21.1035 14.6116 20.5406 13.8395 19.5132 13.4491L15.8009 12.0812C15.4454 11.9502 15.2037 11.6181 15.1884 11.2395L14.9472 5.29266C14.8661 4.37184 14.6674 3.69098 14.3564 3.26869C14.2023 3.05934 13.9929 3.06319 13.9101 3.07458C13.8234 3.08648 13.6728 3.13233 13.5862 3.3029C13.5862 3.3029 12.5675 8.17444 12.5501 8.22024C12.194 9.16064 11.2964 9.74081 10.3458 9.74091C10.0691 9.74091 9.78819 9.69183 9.51453 9.58819L5.19514 7.9298C4.71177 7.74422 4.47041 7.20192 4.65599 6.71855C4.84156 6.23522 5.384 5.99381 5.86719 6.17939L10.1826 7.83628C10.4087 7.92197 10.6647 7.81973 10.7746 7.60589C10.7746 7.60589 11.7931 2.73525 11.8105 2.68945C12.1155 1.88409 12.8052 1.33364 13.6553 1.21701C14.5064 1.10025 15.3536 1.46053 15.8664 2.15709C16.3946 2.87465 16.7056 3.85453 16.8171 5.15287C16.8184 5.16694 17.0365 10.5383 17.0365 10.5383L20.1657 11.6914C20.1683 11.6924 20.1709 11.6933 20.1735 11.6944C21.8954 12.3465 22.9193 13.736 23.0565 15.6072C23.1113 16.3542 22.7792 17.0723 22.1683 17.5281C21.7726 17.8233 21.3048 17.9759 20.8333 17.9759Z" fill="#1A94FF"/>
<path d="M23.0625 22.8044H0.9375C0.419719 22.8044 0 22.3847 0 21.8669C0 21.3492 0.419719 20.9294 0.9375 20.9294H23.0625C23.5803 20.9294 24 21.3492 24 21.8669C24 22.3847 23.5803 22.8044 23.0625 22.8044Z" fill="#1A94FF"/>
</svg>
