<svg width="40" height="40" viewBox="0 0 40 40" fill="none" xmlns="http://www.w3.org/2000/svg">
<g clip-path="url(#clip0_69_1346)">
<path d="M10.9375 21.249C11.8004 21.249 12.5 20.5495 12.5 19.6865C12.5 18.8236 11.8004 18.124 10.9375 18.124C10.0746 18.124 9.375 18.8236 9.375 19.6865C9.375 20.5495 10.0746 21.249 10.9375 21.249Z" fill="#1A94FF"/>
<path d="M10.9375 33.749C11.8004 33.749 12.5 33.0495 12.5 32.1865C12.5 31.3236 11.8004 30.624 10.9375 30.624C10.0746 30.624 9.375 31.3236 9.375 32.1865C9.375 33.0495 10.0746 33.749 10.9375 33.749Z" fill="#1A94FF"/>
<path d="M10.9375 27.499C11.8004 27.499 12.5 26.7995 12.5 25.9365C12.5 25.0736 11.8004 24.374 10.9375 24.374C10.0746 24.374 9.375 25.0736 9.375 25.9365C9.375 26.7995 10.0746 27.499 10.9375 27.499Z" fill="#1A94FF"/>
<path d="M39.2543 21.0779C39.7423 20.2071 40 19.1868 40 18.124C40 14.6778 37.1963 11.874 33.75 11.874H6.25C2.80375 11.874 0 14.6778 0 18.124C0 19.1956 0.262031 20.2239 0.757891 21.0995C0.808438 21.1948 2.93461 25.2057 2.95594 25.2429C3.06812 25.4393 3.125 25.6726 3.125 25.9364C3.125 26.2002 3.06812 26.4335 2.95594 26.6298C2.93602 26.6646 2.40914 27.6596 0.755156 30.7781C0.261016 31.6529 0 32.6795 0 33.749C0 37.1953 2.80375 39.999 6.25 39.999H33.75C37.1963 39.999 40 37.1953 40 33.749C40 32.6795 39.739 31.6529 39.2448 30.7782C37.5909 27.6597 37.064 26.6647 37.0441 26.6299C36.9319 26.4336 36.875 26.2003 36.875 25.9365C36.875 25.6726 36.9319 25.4393 37.0441 25.243C37.0633 25.2093 39.2503 21.0857 39.2543 21.0779ZM36.5184 19.5673C36.5182 19.5677 36.4298 19.7418 34.317 23.7168C33.9459 24.3763 33.75 25.1432 33.75 25.9364C33.75 26.7298 33.946 27.4966 34.3172 28.1562L36.4947 32.2622C36.732 32.7108 36.8751 33.1364 36.8751 33.749C36.8751 35.4721 35.4732 36.874 33.7501 36.874H6.25C4.52688 36.874 3.125 35.4721 3.125 33.749C3.125 33.2206 3.25164 32.7078 3.48164 32.3053C3.50047 32.2724 4.11094 31.1199 5.68281 28.1563C6.05398 27.4968 6.25 26.7299 6.25 25.9365C6.25 25.1432 6.05406 24.3764 5.68305 23.7169C4.15312 20.8321 3.5 19.5996 3.48156 19.5673C3.25164 19.165 3.125 18.6524 3.125 18.124C3.125 16.4009 4.52688 14.999 6.25 14.999H33.75C35.4731 14.999 36.875 16.4009 36.875 18.124C36.875 18.6524 36.7484 19.165 36.5184 19.5673Z" fill="#1A94FF"/>
<path d="M26.5784 0.378261L10.1901 6.34311C9.37916 6.63826 8.96111 7.5349 9.25619 8.34576C9.48713 8.98029 10.0863 9.37428 10.7245 9.37428C10.902 9.37428 11.0824 9.34381 11.2588 9.27967L27.6471 3.31482C29.2661 2.72545 31.0631 3.56334 31.6525 5.18248C31.8332 5.67904 31.8895 6.20412 31.8111 6.66084C31.8098 6.66865 31.6985 7.43381 31.6772 7.59678C31.5587 8.45154 32.1556 9.24061 33.0102 9.35912C33.8652 9.47795 34.6541 8.88084 34.7726 8.02607C34.7738 8.01818 34.8931 7.1917 34.8986 7.14451C35.0593 6.15928 34.9525 5.1124 34.5891 4.11381C33.4103 0.875292 29.8167 -0.800411 26.5784 0.378261Z" fill="#1A94FF"/>
<path d="M30.0737 24.5389L24.6875 21.8458V19.6865C24.6875 18.8236 23.988 18.124 23.125 18.124C22.262 18.124 21.5625 18.8236 21.5625 19.6865V21.8458L16.1762 24.5389C15.4045 24.9249 15.0916 25.8635 15.4775 26.6353C15.8634 27.4072 16.802 27.7201 17.5738 27.334L21.5625 25.3397V28.4143L18.8952 31.0816C18.2849 31.6918 18.2849 32.6811 18.8952 33.2913C19.5054 33.9015 20.4947 33.9015 21.1048 33.2913L23.125 31.2712L25.1452 33.2914C25.7553 33.9015 26.7446 33.9016 27.3548 33.2914C27.9651 32.6811 27.9651 31.6918 27.3548 31.0817L24.6875 28.4143V25.3397L28.6762 27.334C29.4498 27.7207 30.3875 27.4054 30.7726 26.6353C31.1584 25.8635 30.8456 24.9249 30.0737 24.5389Z" fill="#1A94FF"/>
</g>
<defs>
<clipPath id="clip0_69_1346">
<rect width="40" height="40" fill="white"/>
</clipPath>
</defs>
</svg>
