<svg width="14" height="14" viewBox="0 0 14 14" fill="none" xmlns="http://www.w3.org/2000/svg">
<g clip-path="url(#clip0_69_2396)">
<path d="M2.07812 12.9062H5.90625V13.4531C5.90625 13.7552 6.15109 14 6.45312 14C6.75516 14 7 13.7552 7 13.4531V12.9062H10.8281C11.7328 12.9062 12.4688 12.1703 12.4688 11.2656C12.4688 10.6544 12.1326 10.0978 11.5914 9.8131C11.462 9.74501 11.375 9.56957 11.375 9.37653V9.07812C11.375 8.77609 11.1302 8.53125 10.8281 8.53125C10.5261 8.53125 10.2812 8.77609 10.2812 9.07812V9.37653C10.2812 9.98296 10.5881 10.5211 11.0821 10.781C11.2628 10.8761 11.375 11.0618 11.375 11.2656C11.375 11.5672 11.1297 11.8125 10.8281 11.8125H2.07812C1.77658 11.8125 1.53125 11.5672 1.53125 11.2656C1.53125 11.0618 1.6435 10.8761 1.82416 10.781C2.31815 10.5211 2.625 9.98296 2.625 9.37653V6.01562C2.625 3.9048 4.3423 2.1875 6.45312 2.1875C6.83553 2.1875 7.21282 2.24358 7.57455 2.35421C7.86335 2.44256 8.16914 2.28003 8.25746 1.9912C8.34578 1.70237 8.18327 1.39664 7.89444 1.30829C7.60282 1.21909 7.30357 1.15749 7 1.12386V0.546875C7 0.244836 6.75516 0 6.45312 0C6.15109 0 5.90625 0.244836 5.90625 0.546875V1.12429C3.44876 1.39724 1.53125 3.48655 1.53125 6.01562V9.37653C1.53125 9.56957 1.4443 9.74501 1.31488 9.8131C0.773691 10.0978 0.4375 10.6544 0.4375 11.2656C0.4375 12.1703 1.17348 12.9062 2.07812 12.9062Z" fill="#1A94FF"/>
<path d="M10.8281 7.65625C12.3359 7.65625 13.5625 6.42961 13.5625 4.92188C13.5625 3.41414 12.3359 2.1875 10.8281 2.1875C9.32039 2.1875 8.09375 3.41414 8.09375 4.92188C8.09375 6.42961 9.32039 7.65625 10.8281 7.65625ZM10.8281 3.28125C11.7328 3.28125 12.4688 4.01723 12.4688 4.92188C12.4688 5.82652 11.7328 6.5625 10.8281 6.5625C9.92348 6.5625 9.1875 5.82652 9.1875 4.92188C9.1875 4.01723 9.92348 3.28125 10.8281 3.28125Z" fill="#1A94FF"/>
<path d="M10.8281 5.46875C11.1302 5.46875 11.375 5.22391 11.375 4.92188C11.375 4.61984 11.1302 4.375 10.8281 4.375C10.5261 4.375 10.2812 4.61984 10.2812 4.92188C10.2812 5.22391 10.5261 5.46875 10.8281 5.46875Z" fill="#1A94FF"/>
</g>
<defs>
<clipPath id="clip0_69_2396">
<rect width="14" height="14" fill="white"/>
</clipPath>
</defs>
</svg>
