<svg width="24" height="24" viewBox="0 0 24 24" fill="none" xmlns="http://www.w3.org/2000/svg">
<path d="M20.4855 3.5146C12.9468 -4.00899 0.0123199 1.34895 0.00228966 11.9991C-0.130729 18.4483 5.55137 24.1314 12.0012 23.9978C22.6518 23.9872 28.0091 11.0525 20.4855 3.5146ZM12.0011 18.7484C11.3539 18.7484 10.8293 18.2238 10.8293 17.5766C10.891 16.0223 13.1113 16.0227 13.1728 17.5766C13.1728 18.2238 12.6482 18.7484 12.0011 18.7484ZM12.9385 14.1082C12.9385 13.2587 13.3725 12.4581 14.0995 11.9666C15.1915 11.2282 15.8073 10.0006 15.7467 8.68281C15.7039 7.75201 15.3145 6.87362 14.6504 6.20946C13.9862 5.54531 13.1078 5.15596 12.177 5.11312C11.1418 5.06578 10.1595 5.43258 9.41167 6.1468C8.66352 6.86134 8.25149 7.82443 8.25149 8.85872C8.30079 10.1021 10.0771 10.1019 10.1263 8.85872C10.1263 8.3416 10.3323 7.86 10.7065 7.50262C11.0804 7.14556 11.5716 6.96183 12.0909 6.98601C13.8816 7.08467 14.5369 9.40438 13.0493 10.4135C11.806 11.2542 11.0637 12.6354 11.0637 14.1082C11.0637 14.6259 11.4834 15.0456 12.0011 15.0456C12.5189 15.0456 12.9385 14.6259 12.9385 14.1082Z" fill="white"/>
</svg>
