<svg width="20" height="20" viewBox="0 0 20 20" fill="none" xmlns="http://www.w3.org/2000/svg">
<g clip-path="url(#clip0_71_4953)">
<path d="M9.82157 19.9806H5.78815C4.715 19.9806 3.66571 19.6073 2.83361 18.9296C2.00152 18.2519 1.42361 17.2999 1.2063 16.249C0.729961 13.9452 0.32984 11.4781 0.0171655 8.91637C-0.0637712 8.2532 0.144029 7.58575 0.587231 7.08516C1.03121 6.58375 1.66993 6.29614 2.33953 6.29614H13.2461C13.918 6.29614 14.5579 6.58542 15.0019 7.0898C15.446 7.59425 15.6518 8.26591 15.5666 8.93255C15.4251 10.0388 15.2526 11.1458 15.0858 12.2163L15.0784 12.2642C15.012 12.6897 14.6134 12.981 14.1878 12.9146C13.7623 12.8483 13.4712 12.4496 13.5374 12.0241L13.5449 11.9762C13.7101 10.9161 13.881 9.81989 14.0197 8.73485C14.0485 8.50923 13.9816 8.29098 13.8314 8.12026C13.6811 7.94965 13.4733 7.85565 13.2461 7.85565H2.33957C2.11286 7.85565 1.90518 7.94914 1.75485 8.11897C1.60525 8.2879 1.53792 8.504 1.56518 8.72748C1.8727 11.2468 2.26577 13.6712 2.73349 15.9332C3.03159 17.3748 4.31628 18.4211 5.78819 18.4211H9.82157C11.3134 18.4211 12.6013 17.3586 12.8838 15.8947C12.908 15.7692 12.9321 15.6437 12.9558 15.5179C13.0502 15.0196 13.4295 14.6258 13.9222 14.5145C15.3644 14.1887 16.5587 13.6075 17.3762 12.8337C18.0625 12.1839 18.4406 11.4268 18.4406 10.7017C18.4406 10.2636 18.0983 9.90441 17.6613 9.88398C17.2311 9.86386 16.8987 9.49887 16.9188 9.06869C16.9389 8.63851 17.3039 8.30572 17.7341 8.32622C19.0048 8.3856 20.0001 9.42901 20.0001 10.7017C20.0001 11.8596 19.4489 13.0189 18.4482 13.9662C17.4648 14.8971 16.0865 15.5954 14.4532 15.9918C14.4405 16.0579 14.4278 16.1241 14.415 16.1902C13.9911 18.3865 12.0593 19.9806 9.82157 19.9806Z" fill="#1A94FF"/>
<path d="M11.5398 10.9747H4.21032C3.77968 10.9747 3.43059 10.6256 3.43059 10.195C3.43059 9.76434 3.77968 9.41525 4.21032 9.41525H11.5398C11.9705 9.41525 12.3196 9.76434 12.3196 10.195C12.3196 10.6256 11.9705 10.9747 11.5398 10.9747ZM8.35848 4.36443C8.67958 3.90446 8.82301 3.50664 8.80987 3.1124C8.7947 2.65805 8.59271 2.31294 8.44519 2.06097C8.31314 1.83539 8.25988 1.73188 8.2653 1.61496C8.26729 1.57235 8.28784 1.44513 8.43599 1.18447C8.64878 0.810076 8.51778 0.334047 8.14335 0.121257C7.769 -0.0915332 7.29293 0.0395015 7.08018 0.413892C6.84544 0.826918 6.72353 1.1962 6.70747 1.54295C6.68025 2.13282 6.92244 2.54659 7.09929 2.84874C7.16681 2.96406 7.24299 3.09416 7.25063 3.15697C7.24591 3.1786 7.21901 3.27221 7.07971 3.47178C6.83324 3.82489 6.91967 4.31098 7.27274 4.55745C7.40868 4.65234 7.56432 4.69792 7.7184 4.69792C7.96464 4.69792 8.2069 4.58158 8.35848 4.36443ZM7.25161 3.15205C7.25161 3.15209 7.25161 3.15209 7.25161 3.15205V3.15205ZM3.91398 4.36443C4.23508 3.90446 4.37851 3.50664 4.36537 3.1124C4.35021 2.65805 4.14822 2.31294 4.00069 2.06097C3.86864 1.83539 3.81539 1.73188 3.82081 1.61496C3.82279 1.57235 3.84334 1.44513 3.99149 1.18447C4.20428 0.810076 4.07328 0.334047 3.69886 0.121257C3.3245 -0.0915332 2.84844 0.0395015 2.63569 0.413892C2.40095 0.826918 2.27903 1.1962 2.26297 1.54295C2.23576 2.13282 2.47794 2.54659 2.65479 2.84874C2.72231 2.96406 2.79849 3.09416 2.80614 3.15697C2.80142 3.1786 2.77452 3.27221 2.63522 3.47178C2.38874 3.82489 2.47518 4.31098 2.82824 4.55745C2.96419 4.65234 3.11982 4.69792 3.2739 4.69792C3.52014 4.69792 3.7624 4.58158 3.91398 4.36443ZM2.80711 3.15205C2.80711 3.15209 2.80711 3.15209 2.80711 3.15205V3.15205ZM12.803 4.36443C13.1241 3.90446 13.2675 3.50664 13.2544 3.1124C13.2392 2.65805 13.0372 2.31294 12.8897 2.06097C12.7576 1.83539 12.7044 1.73188 12.7098 1.61496C12.7118 1.57235 12.7323 1.44513 12.8805 1.18447C13.0933 0.810076 12.9623 0.334047 12.5878 0.121257C12.2135 -0.0915332 11.7374 0.0395015 11.5247 0.413892C11.2899 0.826918 11.168 1.1962 11.152 1.54295C11.1248 2.13282 11.3669 2.54659 11.5438 2.84874C11.6113 2.96406 11.6875 3.09416 11.6951 3.15697C11.6904 3.1786 11.6635 3.27221 11.5242 3.47178C11.2777 3.82489 11.3642 4.31098 11.7172 4.55745C11.8532 4.65234 12.0088 4.69792 12.1629 4.69792C12.4091 4.69792 12.6514 4.58158 12.803 4.36443ZM11.6961 3.15205C11.6961 3.15209 11.6961 3.15209 11.6961 3.15205V3.15205Z" fill="#1A94FF"/>
</g>
<defs>
<clipPath id="clip0_71_4953">
<rect width="20" height="20" fill="white"/>
</clipPath>
</defs>
</svg>
