<svg width="20" height="20" viewBox="0 0 20 20" fill="none" xmlns="http://www.w3.org/2000/svg">
<g clip-path="url(#clip0_71_4938)">
<path d="M16.0938 7.14844H10.9375C8.78359 7.14844 7.03125 8.90078 7.03125 11.0547V12.9688C7.03125 15.1227 8.78359 16.875 10.9375 16.875H16.0938C18.2477 16.875 20 15.1227 20 12.9688V11.0547C20 8.90078 18.2477 7.14844 16.0938 7.14844ZM18.4375 12.9688C18.4375 14.2611 17.3861 15.3125 16.0938 15.3125H10.9375C9.64516 15.3125 8.59375 14.2611 8.59375 12.9688V11.0547C8.59375 9.76234 9.64516 8.71094 10.9375 8.71094H16.0938C17.3861 8.71094 18.4375 9.76234 18.4375 11.0547V12.9688ZM19.2188 18.4375H6.32812C5.46656 18.4375 4.76562 17.7366 4.76562 16.875V7.78117C6.48332 7.55129 7.8125 6.07648 7.8125 4.29688V3.51562C7.8125 1.57711 6.23539 0 4.29688 0H3.51562C1.57711 0 0 1.57711 0 3.51562V4.29688C0 6.13008 1.41047 7.63977 3.20312 7.79844V16.875C3.20312 18.5981 4.605 20 6.32812 20H19.2188C19.6502 20 20 19.6502 20 19.2188C20 18.7873 19.6502 18.4375 19.2188 18.4375ZM1.5625 4.29688V3.51562C1.5625 2.43867 2.43867 1.5625 3.51562 1.5625H4.29688C5.37383 1.5625 6.25 2.43867 6.25 3.51562V4.29688C6.25 5.37383 5.37383 6.25 4.29688 6.25H3.51562C2.43867 6.25 1.5625 5.37383 1.5625 4.29688Z" fill="#1A94FF"/>
<path d="M15.3125 6.13288C14.881 6.13288 14.5313 5.78312 14.5313 5.35163C14.5313 4.77007 14.0581 4.29694 13.4766 4.29694C12.895 4.29694 12.4219 4.77007 12.4219 5.35163C12.4219 5.78312 12.0721 6.13288 11.6406 6.13288C11.2092 6.13288 10.8594 5.78312 10.8594 5.35163C10.8594 3.90851 12.0334 2.73444 13.4766 2.73444C14.9197 2.73444 16.0938 3.90851 16.0938 5.35163C16.0938 5.78312 15.744 6.13288 15.3125 6.13288ZM4.35427 4.54636L5.13552 3.99948C5.48899 3.75206 5.57497 3.26491 5.32755 2.91144C5.08013 2.55796 4.59302 2.47198 4.2395 2.7194L3.45825 3.26628C3.10477 3.5137 3.0188 4.00085 3.26622 4.35433C3.41821 4.57147 3.66059 4.68765 3.90692 4.68765C4.06165 4.68765 4.21794 4.64179 4.35427 4.54636Z" fill="#1A94FF"/>
</g>
<defs>
<clipPath id="clip0_71_4938">
<rect width="20" height="20" fill="white"/>
</clipPath>
</defs>
</svg>
