<svg width="20" height="20" viewBox="0 0 20 20" fill="none" xmlns="http://www.w3.org/2000/svg">
<g clip-path="url(#clip0_71_4946)">
<path d="M11.6784 19.2177C11.6784 18.7863 11.3287 18.4365 10.8972 18.4365H4.68699C2.96405 18.4365 1.56233 17.0348 1.56233 15.3119V9.88279C1.56233 8.15985 2.96405 6.75813 4.68699 6.75813H15.3108C16.5219 6.75813 17.6347 7.46801 18.1458 8.5666C18.3278 8.95777 18.7924 9.12736 19.1836 8.94535C19.5747 8.76338 19.7443 8.29874 19.5623 7.90757C18.7959 6.26022 17.1271 5.1958 15.3108 5.1958H4.68699C2.10258 5.1958 0 7.29838 0 9.88279V15.3119C0 17.8963 2.10258 19.9989 4.68699 19.9989H10.8972C11.3287 19.9989 11.6784 19.6491 11.6784 19.2177Z" fill="#1A94FF"/>
<path d="M12.5377 4.10233C12.1063 4.10233 11.7565 3.75261 11.7565 3.32117C11.7565 2.35202 10.9681 1.56355 9.9989 1.56355C9.02975 1.56355 8.24128 2.35202 8.24128 3.32117C8.24128 3.75261 7.89156 4.10233 7.46012 4.10233C7.02868 4.10233 6.67896 3.75261 6.67896 3.32117C6.67896 1.49055 8.16828 0.0012207 9.9989 0.0012207C11.8295 0.0012207 13.3189 1.49055 13.3189 3.32117C13.3189 3.75261 12.9691 4.10233 12.5377 4.10233Z" fill="#1A94FF"/>
</g>
<defs>
<clipPath id="clip0_71_4946">
<rect width="20" height="20" fill="white"/>
</clipPath>
</defs>
</svg>
