<svg width="28" height="20" viewBox="0 0 28 20" fill="none" xmlns="http://www.w3.org/2000/svg">
<rect width="28" height="20" rx="2" fill="white"/>
<mask id="mask0_69_1266" style="mask-type:luminance" maskUnits="userSpaceOnUse" x="0" y="0" width="28" height="20">
<rect width="28" height="20" rx="2" fill="white"/>
</mask>
<g mask="url(#mask0_69_1266)">
<path fill-rule="evenodd" clip-rule="evenodd" d="M28 0H0V1.33333H28V0ZM28 2.66667H0V4H28V2.66667ZM0 5.33333H28V6.66667H0V5.33333ZM28 8H0V9.33333H28V8ZM0 10.6667H28V12H0V10.6667ZM28 13.3333H0V14.6667H28V13.3333ZM0 16H28V17.3333H0V16ZM28 18.6667H0V20H28V18.6667Z" fill="#D02F44"/>
<rect width="12" height="9.33333" fill="#46467F"/>
<g filter="url(#filter0_d_69_1266)">
<path fill-rule="evenodd" clip-rule="evenodd" d="M2.66668 1.99992C2.66668 2.36811 2.3682 2.66659 2.00001 2.66659C1.63182 2.66659 1.33334 2.36811 1.33334 1.99992C1.33334 1.63173 1.63182 1.33325 2.00001 1.33325C2.3682 1.33325 2.66668 1.63173 2.66668 1.99992ZM5.33334 1.99992C5.33334 2.36811 5.03487 2.66659 4.66668 2.66659C4.29849 2.66659 4.00001 2.36811 4.00001 1.99992C4.00001 1.63173 4.29849 1.33325 4.66668 1.33325C5.03487 1.33325 5.33334 1.63173 5.33334 1.99992ZM7.33334 2.66659C7.70153 2.66659 8.00001 2.36811 8.00001 1.99992C8.00001 1.63173 7.70153 1.33325 7.33334 1.33325C6.96515 1.33325 6.66668 1.63173 6.66668 1.99992C6.66668 2.36811 6.96515 2.66659 7.33334 2.66659ZM10.6667 1.99992C10.6667 2.36811 10.3682 2.66659 10 2.66659C9.63182 2.66659 9.33334 2.36811 9.33334 1.99992C9.33334 1.63173 9.63182 1.33325 10 1.33325C10.3682 1.33325 10.6667 1.63173 10.6667 1.99992ZM3.33334 3.99992C3.70153 3.99992 4.00001 3.70144 4.00001 3.33325C4.00001 2.96506 3.70153 2.66659 3.33334 2.66659C2.96515 2.66659 2.66668 2.96506 2.66668 3.33325C2.66668 3.70144 2.96515 3.99992 3.33334 3.99992ZM6.66668 3.33325C6.66668 3.70144 6.3682 3.99992 6.00001 3.99992C5.63182 3.99992 5.33334 3.70144 5.33334 3.33325C5.33334 2.96506 5.63182 2.66659 6.00001 2.66659C6.3682 2.66659 6.66668 2.96506 6.66668 3.33325ZM8.66668 3.99992C9.03487 3.99992 9.33334 3.70144 9.33334 3.33325C9.33334 2.96506 9.03487 2.66659 8.66668 2.66659C8.29849 2.66659 8.00001 2.96506 8.00001 3.33325C8.00001 3.70144 8.29849 3.99992 8.66668 3.99992ZM10.6667 4.66659C10.6667 5.03478 10.3682 5.33325 10 5.33325C9.63182 5.33325 9.33334 5.03478 9.33334 4.66659C9.33334 4.2984 9.63182 3.99992 10 3.99992C10.3682 3.99992 10.6667 4.2984 10.6667 4.66659ZM7.33334 5.33325C7.70153 5.33325 8.00001 5.03478 8.00001 4.66659C8.00001 4.2984 7.70153 3.99992 7.33334 3.99992C6.96515 3.99992 6.66668 4.2984 6.66668 4.66659C6.66668 5.03478 6.96515 5.33325 7.33334 5.33325ZM5.33334 4.66659C5.33334 5.03478 5.03487 5.33325 4.66668 5.33325C4.29849 5.33325 4.00001 5.03478 4.00001 4.66659C4.00001 4.2984 4.29849 3.99992 4.66668 3.99992C5.03487 3.99992 5.33334 4.2984 5.33334 4.66659ZM2.00001 5.33325C2.3682 5.33325 2.66668 5.03478 2.66668 4.66659C2.66668 4.2984 2.3682 3.99992 2.00001 3.99992C1.63182 3.99992 1.33334 4.2984 1.33334 4.66659C1.33334 5.03478 1.63182 5.33325 2.00001 5.33325ZM4.00001 5.99992C4.00001 6.36811 3.70153 6.66659 3.33334 6.66659C2.96515 6.66659 2.66668 6.36811 2.66668 5.99992C2.66668 5.63173 2.96515 5.33325 3.33334 5.33325C3.70153 5.33325 4.00001 5.63173 4.00001 5.99992ZM6.00001 6.66659C6.3682 6.66659 6.66668 6.36811 6.66668 5.99992C6.66668 5.63173 6.3682 5.33325 6.00001 5.33325C5.63182 5.33325 5.33334 5.63173 5.33334 5.99992C5.33334 6.36811 5.63182 6.66659 6.00001 6.66659ZM9.33334 5.99992C9.33334 6.36811 9.03487 6.66659 8.66668 6.66659C8.29849 6.66659 8.00001 6.36811 8.00001 5.99992C8.00001 5.63173 8.29849 5.33325 8.66668 5.33325C9.03487 5.33325 9.33334 5.63173 9.33334 5.99992ZM10 7.99992C10.3682 7.99992 10.6667 7.70144 10.6667 7.33325C10.6667 6.96506 10.3682 6.66659 10 6.66659C9.63182 6.66659 9.33334 6.96506 9.33334 7.33325C9.33334 7.70144 9.63182 7.99992 10 7.99992ZM8.00001 7.33325C8.00001 7.70144 7.70153 7.99992 7.33334 7.99992C6.96515 7.99992 6.66668 7.70144 6.66668 7.33325C6.66668 6.96506 6.96515 6.66659 7.33334 6.66659C7.70153 6.66659 8.00001 6.96506 8.00001 7.33325ZM4.66668 7.99992C5.03487 7.99992 5.33334 7.70144 5.33334 7.33325C5.33334 6.96506 5.03487 6.66659 4.66668 6.66659C4.29849 6.66659 4.00001 6.96506 4.00001 7.33325C4.00001 7.70144 4.29849 7.99992 4.66668 7.99992ZM2.66668 7.33325C2.66668 7.70144 2.3682 7.99992 2.00001 7.99992C1.63182 7.99992 1.33334 7.70144 1.33334 7.33325C1.33334 6.96506 1.63182 6.66659 2.00001 6.66659C2.3682 6.66659 2.66668 6.96506 2.66668 7.33325Z" fill="url(#paint0_linear_69_1266)"/>
</g>
</g>
<defs>
<filter id="filter0_d_69_1266" x="1.33334" y="1.33325" width="9.33334" height="7.66675" filterUnits="userSpaceOnUse" color-interpolation-filters="sRGB">
<feFlood flood-opacity="0" result="BackgroundImageFix"/>
<feColorMatrix in="SourceAlpha" type="matrix" values="0 0 0 0 0 0 0 0 0 0 0 0 0 0 0 0 0 0 127 0" result="hardAlpha"/>
<feOffset dy="1"/>
<feColorMatrix type="matrix" values="0 0 0 0 0 0 0 0 0 0 0 0 0 0 0 0 0 0 0.06 0"/>
<feBlend mode="normal" in2="BackgroundImageFix" result="effect1_dropShadow_69_1266"/>
<feBlend mode="normal" in="SourceGraphic" in2="effect1_dropShadow_69_1266" result="shape"/>
</filter>
<linearGradient id="paint0_linear_69_1266" x1="1.33334" y1="1.33325" x2="1.33334" y2="7.99992" gradientUnits="userSpaceOnUse">
<stop stop-color="white"/>
<stop offset="1" stop-color="#F0F0F0"/>
</linearGradient>
</defs>
</svg>
