<svg width="24" height="24" viewBox="0 0 24 24" fill="none" xmlns="http://www.w3.org/2000/svg">
<g clip-path="url(#clip0_69_1339)">
<path d="M15.75 24H5.625C2.52338 24 0 21.4766 0 18.375V5.625C0 2.52338 2.52338 0 5.625 0H18.375C21.4766 0 24 2.52338 24 5.625V10.0312C24 10.549 23.5803 10.9688 23.0625 10.9688C22.5447 10.9688 22.125 10.549 22.125 10.0312V5.625C22.125 3.55725 20.4427 1.875 18.375 1.875H5.625C3.55725 1.875 1.875 3.55725 1.875 5.625V18.375C1.875 20.4427 3.55725 22.125 5.625 22.125H15.75C16.2678 22.125 16.6875 22.5447 16.6875 23.0625C16.6875 23.5803 16.2678 24 15.75 24ZM9.375 18.4219V14.5312H12.3984C15.0995 14.5312 17.2969 12.3338 17.2969 9.63281V9.53906C17.2969 6.83808 15.0995 4.64062 12.3984 4.64062C9.69741 4.64062 7.5 6.83808 7.5 9.53906V18.4219C7.5 18.9397 7.91972 19.3594 8.4375 19.3594C8.95528 19.3594 9.375 18.9397 9.375 18.4219ZM9.375 9.53906C9.375 7.87195 10.7313 6.51562 12.3984 6.51562C14.0655 6.51562 15.4219 7.87195 15.4219 9.53906V9.63281C15.4219 11.2999 14.0655 12.6562 12.3984 12.6562H9.375V9.53906Z" fill="#1A94FF"/>
<path d="M24 19.9844C24 18.5025 22.6974 17.2969 21.0964 17.2969C20.4048 17.2969 19.9219 16.9885 19.9219 16.5469C19.9219 16.1161 20.2689 15.7656 20.6953 15.7656C21.1253 15.7656 21.6853 15.8125 22.5795 16.1602C23.062 16.3479 23.6053 16.1088 23.793 15.6262C23.9806 15.1437 23.7416 14.6003 23.2591 14.4127C22.7936 14.2317 22.3878 14.113 22.0313 14.0348V13.3125C22.0313 12.7947 21.6115 12.375 21.0938 12.375C20.576 12.375 20.1563 12.7947 20.1563 13.3125V13.9461C18.9535 14.1965 18.0469 15.2674 18.0469 16.5469C18.0469 17.299 18.3761 17.9828 18.9739 18.472C19.5332 18.9299 20.2672 19.1719 21.0963 19.1719C21.6539 19.1719 22.125 19.544 22.125 19.9844C22.125 20.4006 21.738 20.7656 21.2968 20.7656C20.9526 20.7656 20.089 20.6394 19.2369 20.3007C18.7557 20.1095 18.2106 20.3445 18.0194 20.8256C17.8281 21.3067 18.0631 21.8519 18.5443 22.0431C19.0872 22.2589 19.6536 22.4129 20.1562 22.5104V23.0625C20.1562 23.5803 20.5759 24 21.0937 24C21.6114 24 22.0312 23.5803 22.0312 23.0625V22.539C22.4598 22.4183 22.8559 22.1929 23.1861 21.8748C23.711 21.369 24 20.6977 24 19.9844Z" fill="#1A94FF"/>
</g>
<defs>
<clipPath id="clip0_69_1339">
<rect width="24" height="24" fill="white"/>
</clipPath>
</defs>
</svg>
